<svg width="73" height="72" fill="none" xmlns="http://www.w3.org/2000/svg"><path d="M58.698 71.921H13.747C6.299 71.921.262 65.884.262 58.436v-44.95C.262 6.035 6.299 0 13.747 0h44.95c7.449 0 13.486 6.037 13.486 13.485v44.95c0 7.45-6.037 13.486-13.485 13.486z" fill="#2D9CDB"/><g opacity=".4" fill="#000"><path d="M51.901 33.317h7.478a23.133 23.133 0 00-20.188-20.188v7.487a15.759 15.759 0 0112.71 12.7z"/><path d="M59.535 35.167H37.339V12.97a23.132 23.132 0 1022.196 22.196zm-18.583 1.85a4.626 4.626 0 11-5.463-5.459v4.534a.925.925 0 00.925.925h4.538zm-4.538 14.805a15.73 15.73 0 01-.925-31.436v3.72a12.028 12.028 0 1012.921 12.91h3.71a15.752 15.752 0 01-15.707 14.805z"/><path d="M40.117 33.315h8.005a12.054 12.054 0 00-8.93-8.934v8.01c.348.264.66.576.925.924z"/></g></svg>