<svg width="34" height="28" fill="none" xmlns="http://www.w3.org/2000/svg"><path fill-rule="evenodd" clip-rule="evenodd" d="M29.07 1.714H4.642c-.54 0-1.058.18-1.44.502-.381.322-.596.758-.596 1.213V24c0 .455.215.89.596 1.212.382.322.9.502 1.44.502H29.07c.54 0 1.058-.18 1.44-.502.382-.321.596-.757.596-1.212V3.429c0-.455-.214-.891-.596-1.213a2.244 2.244 0 00-1.44-.502zM4.642 0c-1.08 0-2.116.361-2.88 1.004C1 1.647.57 2.52.57 3.43V24c0 .91.43 1.781 1.193 2.424.763.643 1.799 1.005 2.879 1.005H29.07c1.08 0 2.116-.362 2.88-1.005.763-.643 1.192-1.515 1.192-2.424V3.429c0-.91-.43-1.782-1.193-2.425C31.186.361 30.15 0 29.07 0H4.642z" fill="#fff"/><path fill-rule="evenodd" clip-rule="evenodd" d="M18.821 19.464a.856.856 0 010-1.213l4.538-4.537L18.82 9.18a.858.858 0 111.214-1.214l5.143 5.143a.857.857 0 010 1.213l-5.143 5.143a.856.856 0 01-1.214 0z" fill="#fff"/><path fill-rule="evenodd" clip-rule="evenodd" d="M6.57 13.714c0-.227.165-.445.46-.606.294-.16.694-.25 1.11-.25h15.715c.417 0 .817.09 1.111.25.295.16.46.379.46.606 0 .228-.165.446-.46.606-.294.161-.694.251-1.11.251H8.14c-.417 0-.817-.09-1.111-.25-.295-.161-.46-.38-.46-.607z" fill="#fff"/></svg>