<svg width="179" height="180" fill="none" xmlns="http://www.w3.org/2000/svg"><g filter="url(#filter0_d)"><circle cx="89.71" cy="74.71" r="58.71" fill="#FFDD02"/></g><path d="M65.04 71.31l12.772 9.327-4.988 15.046a2.52 2.52 0 00.902 2.812 2.486 2.486 0 002.939-.003l12.871-9.304 12.772 9.329a2.488 2.488 0 003.846-1.255 2.523 2.523 0 00-.004-1.554l-4.989-15.046 12.771-9.328a2.507 2.507 0 00.961-2.782 2.5 2.5 0 00-2.333-1.782H96.795l-4.989-15.045a2.508 2.508 0 00-.906-1.249 2.486 2.486 0 00-2.926 0c-.426.31-.743.747-.907 1.249L82.078 66.77H66.313a2.487 2.487 0 00-1.396.559 2.52 2.52 0 00.124 3.98z" fill="#010D1B"/><defs><filter id="filter0_d" x=".501" y=".751" width="178.416" height="178.416" filterUnits="userSpaceOnUse" color-interpolation-filters="sRGB"><feFlood flood-opacity="0" result="BackgroundImageFix"/><feColorMatrix in="SourceAlpha" values="0 0 0 0 0 0 0 0 0 0 0 0 0 0 0 0 0 0 127 0"/><feOffset dy="15.249"/><feGaussianBlur stdDeviation="15.249"/><feColorMatrix values="0 0 0 0 0 0 0 0 0 0 0 0 0 0 0 0 0 0 0.15 0"/><feBlend in2="BackgroundImageFix" result="effect1_dropShadow"/><feBlend in="SourceGraphic" in2="effect1_dropShadow" result="shape"/></filter></defs></svg>