<svg width="73" height="72" fill="none" xmlns="http://www.w3.org/2000/svg"><path d="M59.077 71.921H14.126C6.678 71.921.64 65.884.64 58.436v-44.95C.64 6.035 6.678 0 14.126 0h44.95c7.449 0 13.486 6.037 13.486 13.485v44.95c0 7.45-6.037 13.486-13.485 13.486z" fill="#FFD200"/><path d="M58.843 57.064a15.018 15.018 0 01-7.865-5.62h.165a2.791 2.791 0 002.792-2.792V37.485a2.792 2.792 0 00-2.792-2.792H30.671a2.792 2.792 0 00-2.792 2.792v11.167a2.792 2.792 0 002.792 2.792h12.47c4.16 7.358 14.982 7.444 15.447 7.444a.93.93 0 00.255-1.824zM46.49 46.79H35.325a.93.93 0 010-1.861H46.49a.93.93 0 010 1.86zm0-5.584H35.325a.93.93 0 110-1.86H46.49a.93.93 0 110 1.86zm-4.651-28.845H21.366a2.792 2.792 0 00-2.792 2.792V26.32a2.792 2.792 0 002.792 2.792h.171a14.966 14.966 0 01-7.872 5.62.93.93 0 00.256 1.824c.466 0 11.29-.086 15.448-7.444h12.47a2.792 2.792 0 002.791-2.792V15.153a2.792 2.792 0 00-2.791-2.792zM37.186 24.46H26.019a.931.931 0 010-1.861h11.167a.93.93 0 110 1.86zm0-5.584H26.019a.931.931 0 010-1.86h11.167a.93.93 0 010 1.86z" opacity=".4" fill="#000"/></svg>