<svg width="35" height="48" fill="none" xmlns="http://www.w3.org/2000/svg"><path d="M29.251 19.586h-23.5a4.901 4.901 0 00-4.896 4.896v17.625a4.901 4.901 0 004.896 4.896h23.5c2.7 0 4.896-2.197 4.896-4.896V24.482a4.901 4.901 0 00-4.896-4.896zm2.938 22.521a2.941 2.941 0 01-2.938 2.938h-23.5a2.941 2.941 0 01-2.937-2.938V24.482a2.941 2.941 0 012.937-2.937h23.5a2.941 2.941 0 012.938 2.937v17.625z" fill="#010D1B"/><path d="M17.499.002c-7.019 0-12.73 5.71-12.73 12.73v7.832c0 .541.44.98.98.98h23.5a.98.98 0 00.979-.98v-7.833c0-7.019-5.71-12.729-12.73-12.729zm10.77 19.583H6.729v-6.854c0-5.94 4.833-10.77 10.77-10.77 5.938 0 10.771 4.83 10.771 10.77v6.854zm-10.77 13.708a.98.98 0 00-.98.98v5.874a.98.98 0 001.959 0v-5.875a.98.98 0 00-.98-.979z" fill="#010D1B"/><path d="M17.501 25.461a4.901 4.901 0 00-4.896 4.896 4.901 4.901 0 004.896 4.896c2.7 0 4.896-2.197 4.896-4.896a4.901 4.901 0 00-4.896-4.896zm0 7.834a2.941 2.941 0 01-2.937-2.938A2.941 2.941 0 0117.5 27.42a2.941 2.941 0 012.938 2.937 2.941 2.941 0 01-2.938 2.938z" fill="#010D1B"/></svg>