<svg width="72" height="72" fill="none" xmlns="http://www.w3.org/2000/svg"><path d="M58.487 71.921H13.536C6.088 71.921.051 65.884.051 58.436v-44.95C.05 6.035 6.088 0 13.536 0h44.95c7.449 0 13.486 6.037 13.486 13.485v44.95c0 7.45-6.037 13.486-13.485 13.486z" fill="#FFD3B9"/><g opacity=".4" fill="#000"><path d="M40.157 22.479v2.843H29.356a7.39 7.39 0 00-7.391 7.39v2.82a1.16 1.16 0 002.303.184 2.848 2.848 0 012.813-2.435h13.076v2.842a.568.568 0 00.91.455l9.096-6.822a.57.57 0 000-.91l-9.096-6.822a.57.57 0 00-.91.455z"/><path d="M48.09 36.534a2.848 2.848 0 01-2.814 2.434H32.2v-2.843a.569.569 0 00-.91-.455l-9.096 6.822a.589.589 0 000 .91l9.096 6.822a.57.57 0 00.91-.455v-2.842h10.802a7.391 7.391 0 007.39-7.39v-2.82a1.159 1.159 0 00-2.303-.183z"/></g></svg>