<svg width="73" height="72" fill="none" xmlns="http://www.w3.org/2000/svg"><path d="M58.998 71.921h-44.95C6.599 71.921.562 65.884.562 58.436v-44.95C.563 6.035 6.6 0 14.049 0h44.95c7.449 0 13.486 6.037 13.486 13.485v44.95c0 7.45-6.037 13.486-13.486 13.486z" fill="#BE1CE7"/><path d="M50.123 29.565l-4.916 9.833H27.174l-4.916-9.833h27.865zm.761-1.512H21.505l-3.97-7.943a2.351 2.351 0 012.102-3.404h33.115a2.352 2.352 0 012.103 3.404l-3.971 7.943zm-6.43 12.859l-6.157 12.316a2.353 2.353 0 01-4.206 0l-6.157-12.316h16.52z" opacity=".4" fill="#000"/></svg>