<svg width="73" height="72" fill="none" xmlns="http://www.w3.org/2000/svg"><path d="M59.143 71.921h-44.95c-7.45 0-13.486-6.037-13.486-13.485v-44.95C.707 6.035 6.744 0 14.192 0h44.95c7.45 0 13.486 6.037 13.486 13.485v44.95c0 7.45-6.037 13.486-13.485 13.486z" fill="#F2994A"/><g opacity=".4" fill="#000"><path d="M22.219 43.439h-6.22l-.247 1.257c-.083.454.04.927.33 1.276.288.35.742.556 1.196.556h4.718a5.64 5.64 0 01-.083-1.029 6.82 6.82 0 01.306-2.06zm21.999-21.05a1.492 1.492 0 00-1.196-.578H21.394a1.56 1.56 0 00-1.523 1.257l-.142.803h4.758a3.624 3.624 0 013.606 3.606c0 1.32-.72 2.45-1.77 3.09 1.05.64 1.77 1.77 1.77 3.09 0 1.319-.72 2.45-1.77 3.09a3.705 3.705 0 011.46 1.668 7.115 7.115 0 011.338-.124c3.974 0 7.209 3.232 7.209 7.209 0 .349-.022.7-.084 1.028h2.141c.72 0 1.36-.516 1.505-1.214l4.635-21.628c.105-.454 0-.927-.31-1.298zm7.042 5.601h-4.41c-.741 0-1.36.516-1.523 1.215L42.03 44.653c-.102.454 0 .927.31 1.298.287.37.72.578 1.195.578h1.112a5.641 5.641 0 01-.083-1.03c0-3.976 3.235-7.208 7.208-7.208 3.974 0 7.209 3.235 7.209 7.209 0 .225 0 .432-.04.658.268-.207.454-.495.515-.844l1.545-7.208a1.74 1.74 0 00.044-.33c0-5.398-4.388-9.786-9.786-9.786z"/><path d="M24.487 29.021h-7.212a1.545 1.545 0 010-3.09h7.209a1.545 1.545 0 01.003 3.09zm-.001 6.18h-9.27a1.545 1.545 0 010-3.09h9.27a1.545 1.545 0 010 3.09zm-.002 6.179h-11.33a1.545 1.545 0 010-3.089h11.33a1.545 1.545 0 010 3.09zm27.292 9.27a5.155 5.155 0 01-5.151-5.15 5.155 5.155 0 015.15-5.15 5.155 5.155 0 015.151 5.15 5.155 5.155 0 01-5.15 5.15zm-22.656 0a5.157 5.157 0 01-5.151-5.15c0-2.84 2.31-5.15 5.15-5.15 2.84 0 5.15 2.308 5.15 5.15a5.155 5.155 0 01-5.15 5.15z"/></g></svg>