<svg width="240" height="240" fill="none" xmlns="http://www.w3.org/2000/svg"><g filter="url(#filter0_d)"><rect x="40" y="20" width="160" height="160" rx="80" fill="#D74D40"/></g><g opacity=".4" fill="#fff"><path d="M146.874 70.093c-.365-.68-9.148-16.77-26.871-16.77s-26.507 16.09-26.872 16.77a1.08 1.08 0 000 1.017c.365.68 9.149 16.771 26.872 16.771s26.506-16.091 26.871-16.77a1.075 1.075 0 000-1.018zm-26.871 11.308a10.8 10.8 0 1110.799-10.8 10.813 10.813 0 01-10.799 10.8z"/><path d="M120.003 61.96a8.64 8.64 0 108.64 8.64 8.65 8.65 0 00-8.64-8.64zm0 15.12a1.082 1.082 0 01-1.08-1.08 1.082 1.082 0 011.08-1.08 4.322 4.322 0 004.32-4.32 1.082 1.082 0 011.08-1.08 1.078 1.078 0 011.08 1.08 6.487 6.487 0 01-6.48 6.48z"/></g><path d="M88.785 115.201c.1 0 .189.041.264.123l.729.785a5.782 5.782 0 01-2.024 1.503c-.788.36-1.743.539-2.865.539-.97 0-1.853-.167-2.648-.501a5.902 5.902 0 01-2.032-1.418 6.47 6.47 0 01-1.305-2.194c-.31-.851-.464-1.787-.464-2.808s.161-1.958.483-2.809a6.458 6.458 0 011.352-2.193 6.055 6.055 0 012.099-1.419c.813-.34 1.711-.51 2.695-.51.964 0 1.815.154 2.553.463a6.42 6.42 0 011.948 1.258l-.606.841a.524.524 0 01-.15.161.421.421 0 01-.237.057c-.114 0-.252-.06-.416-.18a5.731 5.731 0 00-.643-.416 4.85 4.85 0 00-.993-.407c-.397-.126-.886-.189-1.466-.189-.7 0-1.34.123-1.92.369a4.18 4.18 0 00-1.503 1.05c-.416.46-.74 1.021-.974 1.683-.233.662-.35 1.409-.35 2.241 0 .844.12 1.598.36 2.26.246.662.577 1.223.993 1.683.422.454.917.8 1.484 1.04a4.77 4.77 0 001.853.359c.404 0 .766-.022 1.088-.066.328-.05.627-.126.898-.227a3.79 3.79 0 00.766-.378 5.67 5.67 0 00.71-.558.487.487 0 01.32-.142zm13.398-6.808V118h-1.523v-6.364c0-.176.01-.372.029-.586.025-.221.057-.425.094-.615l-3.328 5.835a.64.64 0 01-.199.227.491.491 0 01-.283.085h-.19a.537.537 0 01-.293-.085.639.639 0 01-.198-.227l-3.385-5.853c.031.189.06.397.085.624.025.22.038.419.038.595V118h-1.523v-9.607h1.352a.77.77 0 01.35.085.658.658 0 01.293.293l2.989 4.993c.144.29.274.596.387.917.107-.334.233-.64.378-.917l2.932-4.993c.082-.151.179-.252.293-.302a.843.843 0 01.35-.076h1.352zm6.696-.123c.7 0 1.33.117 1.891.35.561.233 1.04.564 1.437.993.397.429.7.949.908 1.56.214.605.321 1.283.321 2.033 0 .756-.107 1.437-.321 2.042a4.309 4.309 0 01-.908 1.551c-.397.429-.876.76-1.437.993-.561.227-1.191.34-1.891.34-.706 0-1.343-.113-1.91-.34a4.044 4.044 0 01-1.437-.993 4.416 4.416 0 01-.918-1.551c-.208-.605-.312-1.286-.312-2.042 0-.75.104-1.428.312-2.033.215-.611.52-1.131.918-1.56.397-.429.876-.76 1.437-.993.567-.233 1.204-.35 1.91-.35zm0 8.548c.945 0 1.651-.315 2.118-.946.466-.636.7-1.522.7-2.657 0-1.141-.234-2.029-.7-2.666-.467-.637-1.173-.955-2.118-.955-.479 0-.898.082-1.258.246a2.38 2.38 0 00-.889.709c-.233.309-.409.69-.529 1.144-.114.448-.17.955-.17 1.522 0 1.135.233 2.021.699 2.657.473.631 1.189.946 2.147.946zm14.266-7.111h-3.678V118h-1.683v-8.293h-3.679v-1.286h9.04v1.286zm3.297 5.986c.309.416.647.709 1.012.879.366.17.776.256 1.229.256.896 0 1.583-.319 2.062-.956.479-.636.718-1.544.718-2.723 0-.624-.056-1.16-.17-1.607-.107-.448-.265-.813-.473-1.097a1.849 1.849 0 00-.766-.634 2.55 2.55 0 00-1.03-.198c-.549 0-1.031.126-1.447.378-.41.252-.788.608-1.135 1.069v4.633zm-.085-5.787c.404-.498.87-.898 1.4-1.201.529-.302 1.134-.454 1.815-.454a3.43 3.43 0 011.504.322c.447.208.829.52 1.144.936.315.41.558.92.728 1.532.17.611.255 1.314.255 2.108 0 .706-.094 1.365-.283 1.976a4.785 4.785 0 01-.823 1.58 3.854 3.854 0 01-1.305 1.049c-.511.252-1.087.378-1.73.378-.587 0-1.091-.097-1.513-.293a3.625 3.625 0 01-1.107-.832v4.236h-1.692v-12.822h1.012c.239 0 .387.117.444.35l.151 1.135zm15.386 2.26c0-.391-.057-.747-.17-1.069a2.27 2.27 0 00-.482-.841 2.044 2.044 0 00-.766-.549 2.559 2.559 0 00-1.031-.198c-.807 0-1.447.236-1.92.709-.466.466-.756 1.116-.869 1.948h5.238zm1.362 4.491a3.289 3.289 0 01-.747.662c-.29.183-.602.334-.937.454-.327.12-.668.208-1.021.265a5.963 5.963 0 01-1.049.094c-.662 0-1.274-.11-1.835-.331a4.146 4.146 0 01-1.446-.983c-.404-.435-.719-.971-.946-1.607-.227-.637-.34-1.368-.34-2.194 0-.668.1-1.292.302-1.872.208-.58.504-1.081.889-1.504a3.992 3.992 0 011.409-1.002c.555-.246 1.179-.369 1.872-.369.574 0 1.103.098 1.589.293.491.189.914.467 1.267.832.359.36.64.807.841 1.343.202.53.303 1.135.303 1.816 0 .264-.029.441-.085.529-.057.088-.164.132-.322.132h-6.401c.019.606.101 1.132.246 1.58.151.447.359.822.624 1.125.264.296.58.52.945.671.366.145.776.218 1.23.218.422 0 .784-.048 1.087-.142.309-.101.574-.208.794-.322.221-.113.404-.217.549-.312.151-.101.28-.151.387-.151.139 0 .246.054.322.161l.473.614zm10.032-6.95h-3.678V118h-1.683v-8.293h-3.678v-1.286h9.039v1.286zm5.283 7.064c.341 0 .634-.041.88-.123.252-.088.46-.208.624-.359.164-.158.286-.341.368-.549a1.84 1.84 0 00.123-.681 1.86 1.86 0 00-.104-.633 1.279 1.279 0 00-.35-.53 1.652 1.652 0 00-.624-.359 2.95 2.95 0 00-.945-.132h-2.033v3.366h2.061zm-.028-4.596c.662 0 1.216.079 1.664.237.454.157.816.368 1.087.633.278.265.476.571.596.917.12.347.18.706.18 1.078 0 .429-.076.826-.227 1.192a2.584 2.584 0 01-.672.936 3.306 3.306 0 01-1.096.615c-.435.145-.936.217-1.504.217h-3.678v-9.579h1.617v3.754h2.033zM98.657 140h-1.693v-8.293H92.37V140h-1.693v-9.579h7.98V140zm4.368-2.307c.309.416.646.709 1.012.879.365.17.775.256 1.229.256.895 0 1.582-.319 2.061-.956.479-.636.719-1.544.719-2.723 0-.624-.057-1.16-.17-1.607-.108-.448-.265-.813-.473-1.097a1.849 1.849 0 00-.766-.634 2.555 2.555 0 00-1.031-.198c-.548 0-1.03.126-1.446.378-.41.252-.788.608-1.135 1.069v4.633zm-.085-5.787c.403-.498.87-.898 1.399-1.201.53-.302 1.135-.454 1.816-.454.554 0 1.056.107 1.503.322.448.208.829.52 1.144.936.315.41.558.92.728 1.532.171.611.256 1.314.256 2.108 0 .706-.095 1.365-.284 1.976a4.748 4.748 0 01-.823 1.58 3.86 3.86 0 01-1.304 1.049c-.511.252-1.088.378-1.731.378-.586 0-1.09-.097-1.513-.293a3.609 3.609 0 01-1.106-.832v4.236h-1.693v-12.822h1.012c.24 0 .388.117.445.35l.151 1.135zm13.012-1.636c.7 0 1.33.117 1.891.35.561.233 1.04.564 1.437.993.398.429.7.949.908 1.56.215.605.322 1.283.322 2.033 0 .756-.107 1.437-.322 2.042a4.294 4.294 0 01-.908 1.551c-.397.429-.876.76-1.437.993-.561.227-1.191.34-1.891.34-.706 0-1.343-.113-1.91-.34a4.044 4.044 0 01-1.437-.993 4.414 4.414 0 01-.917-1.551c-.208-.605-.312-1.286-.312-2.042 0-.75.104-1.428.312-2.033a4.41 4.41 0 01.917-1.56c.397-.429.876-.76 1.437-.993.567-.233 1.204-.35 1.91-.35zm0 8.548c.946 0 1.652-.315 2.118-.946.467-.636.7-1.522.7-2.657 0-1.141-.233-2.029-.7-2.666-.466-.637-1.172-.955-2.118-.955-.479 0-.898.082-1.257.246-.354.164-.65.4-.889.709-.234.309-.41.69-.53 1.144-.113.448-.17.955-.17 1.522 0 1.135.233 2.021.7 2.657.472.631 1.188.946 2.146.946zm13.103-4.652c0-.391-.056-.747-.17-1.069a2.27 2.27 0 00-.482-.841 2.028 2.028 0 00-.766-.549 2.555 2.555 0 00-1.031-.198c-.806 0-1.446.236-1.919.709-.467.466-.757 1.116-.87 1.948h5.238zm1.362 4.491a3.289 3.289 0 01-.747.662c-.29.183-.602.334-.936.454-.328.12-.668.208-1.021.265a5.966 5.966 0 01-1.05.094c-.662 0-1.273-.11-1.834-.331a4.15 4.15 0 01-1.447-.983c-.403-.435-.719-.971-.946-1.607-.226-.637-.34-1.368-.34-2.194 0-.668.101-1.292.303-1.872.208-.58.504-1.081.888-1.504a4.001 4.001 0 011.409-1.002c.555-.246 1.179-.369 1.873-.369a4.22 4.22 0 011.588.293 3.47 3.47 0 011.267.832c.359.36.64.807.842 1.343.201.53.302 1.135.302 1.816 0 .264-.028.441-.085.529-.057.088-.164.132-.321.132h-6.402c.019.606.101 1.132.246 1.58.151.447.359.822.624 1.125.265.296.58.52.946.671.365.145.775.218 1.229.218.422 0 .785-.048 1.087-.142.309-.101.574-.208.795-.322.22-.113.403-.217.548-.312.151-.101.281-.151.388-.151a.37.37 0 01.321.161l.473.614zm8.034-7.763c.088-.138.205-.252.35-.34a.878.878 0 01.463-.133h1.314l-2.486 3.65a3 3 0 01-.473.577 1.768 1.768 0 01-.605.341c.302.081.558.211.766.387.208.17.394.391.557.662l2.516 3.962h-1.173c-.302 0-.536-.05-.7-.151a1.351 1.351 0 01-.425-.435l-1.863-2.979c-.296-.491-.741-.737-1.333-.737h-1.031v4.311h-1.692v-9.588h1.692v4.142h.908c.504 0 .898-.214 1.182-.643l2.033-3.026zm11.934.813h-3.678V140h-1.683v-8.293h-3.678v-1.286h9.039v1.286z" fill="#fff"/><defs><filter id="filter0_d" x="0" y="0" width="240" height="240" filterUnits="userSpaceOnUse" color-interpolation-filters="sRGB"><feFlood flood-opacity="0" result="BackgroundImageFix"/><feColorMatrix in="SourceAlpha" values="0 0 0 0 0 0 0 0 0 0 0 0 0 0 0 0 0 0 127 0"/><feOffset dy="20"/><feGaussianBlur stdDeviation="20"/><feColorMatrix values="0 0 0 0 0 0 0 0 0 0 0 0 0 0 0 0 0 0 0.15 0"/><feBlend in2="BackgroundImageFix" result="effect1_dropShadow"/><feBlend in="SourceGraphic" in2="effect1_dropShadow" result="shape"/></filter></defs></svg>