<svg xmlns="http://www.w3.org/2000/svg" width="97" height="97"><path fill-rule="evenodd" clip-rule="evenodd" fill="#B3260F" d="M0 0h97v97H0V0z"/><path fill-rule="evenodd" clip-rule="evenodd" fill="#862112" d="M12.553 97V79.873H0v-6.831h12.553V13.013H37.9c7.791 0 14.266 1.983 19.423 5.84s7.682 9.696 7.682 17.298c0 7.602-2.524 13.332-7.682 17.189-5.157 3.855-11.632 5.839-19.423 5.839H21.222v13.863h23.921v6.831H21.222V97h-8.669zm23.373-45.094c13.387 0 20.081-5.288 20.081-15.755s-6.694-15.756-20.081-15.756H21.222v31.511h14.704z"/></svg>