<svg xmlns="http://www.w3.org/2000/svg" width="97" height="97"><path fill-rule="evenodd" clip-rule="evenodd" fill="#B3260F" d="M0 0h97v97H0V0z"/><path fill-rule="evenodd" clip-rule="evenodd" fill="#862112" d="M48.039 84.387c-19.858 0-35.957-16.066-35.957-35.887 0-5.684 1.33-11.057 3.687-15.833-1.36.524-2.884.492-4.189-.261L0 25.733V13.369l16.945 9.763c1.397.806 2.208 2.237 2.361 3.795 6.562-8.692 16.989-14.313 28.733-14.313 19.859 0 35.957 16.066 35.957 35.886 0 19.82-16.098 35.887-35.957 35.887zm0-63.814c-15.454 0-27.982 12.503-27.982 27.927s12.528 27.928 27.982 27.928c15.455 0 27.982-12.504 27.982-27.928 0-15.424-12.527-27.927-27.982-27.927z"/></svg>