<svg xmlns="http://www.w3.org/2000/svg" width="97" height="97"><path fill-rule="evenodd" clip-rule="evenodd" fill="#B3260F" d="M0 0h97v97H0V0z"/><path fill-rule="evenodd" clip-rule="evenodd" fill="#862112" d="M85.35 97h-8.27C71.776 80.189 56.063 68 37.5 68 20.946 68 6.661 77.694 0 91.713V76.366c5.49-6.448 12.73-11.354 21.464-14.044C15.692 57.646 12 50.506 12 42.5 12 28.417 23.417 17 37.5 17S63 28.417 63 42.5c0 8.006-3.692 15.146-9.464 19.822C70.116 67.428 81.33 80.51 85.35 97zM55 42.5C55 32.835 47.165 25 37.5 25S20 32.835 20 42.5c0 9.664 7.834 17.499 17.498 17.5h.004C47.166 59.999 55 52.164 55 42.5z"/></svg>