<svg width="193" height="62" fill="none" xmlns="http://www.w3.org/2000/svg"><path d="M137.109 29.689h-1.22v-9.591h-3.401v-1.09h8.022v1.09h-3.401v9.59zm5.842-4.447v4.447h-1.221V19.008h2.921c1.308 0 2.267.261 2.921.741.611.523.959 1.264.959 2.267 0 1.395-.697 2.354-2.136 2.877l2.878 4.796h-1.483l-2.572-4.447h-2.267zm0-1.09h1.7c.872 0 1.526-.174 1.919-.523.392-.349.61-.872.61-1.57 0-.697-.218-1.22-.61-1.525-.436-.305-1.09-.48-2.006-.48h-1.613v4.098zm15.041 5.537l-1.308-3.4h-4.272l-1.308 3.4h-1.264l4.229-10.725h1.046L159.3 29.69h-1.308zm-1.7-4.534l-1.221-3.313c-.174-.436-.305-.916-.479-1.526-.087.48-.262.959-.48 1.526l-1.264 3.313h3.444zm12.468-.915c0 1.743-.48 3.095-1.439 4.054-.959.915-2.311 1.395-4.142 1.395h-2.964V19.008h3.27c1.656 0 2.964.48 3.88 1.395.915.915 1.395 2.18 1.395 3.836zm-1.352.043c0-1.395-.349-2.441-1.046-3.139-.698-.697-1.744-1.046-3.095-1.046h-1.788v8.545h1.526c1.482 0 2.572-.35 3.357-1.09.697-.785 1.046-1.831 1.046-3.27zm3.053 5.406V19.008h1.221v10.68h-1.221zm11.859 0h-1.395l-5.842-8.937h-.044c.087 1.046.131 2.005.131 2.877v6.06h-1.221V19.008h1.395l5.799 8.937h.043c0-.13-.043-.567-.087-1.264-.044-.698-.044-1.221-.044-1.526V19.05h1.177v10.64h.088zm7.061-5.624H193v5.188a11.31 11.31 0 01-1.744.392 13.86 13.86 0 01-2.049.131c-1.613 0-2.878-.48-3.793-1.438-.916-.96-1.352-2.311-1.352-4.055 0-1.09.218-2.093.654-2.92a4.523 4.523 0 011.919-1.919c.828-.436 1.831-.654 2.921-.654a8.62 8.62 0 013.182.61l-.479 1.09c-.96-.392-1.875-.61-2.791-.61-1.307 0-2.31.392-3.051 1.177-.741.785-1.09 1.831-1.09 3.226 0 1.439.349 2.529 1.046 3.27.698.741 1.744 1.133 3.095 1.133.742 0 1.483-.087 2.18-.261v-3.27h-2.398v-1.09h.131zM133.84 49.22V38.54h1.221v9.547h4.708v1.133h-5.929zm9.156 0h-1.22v-9.59h-3.401v-1.09h8.022v1.09h-3.401v9.591zm13.338-5.45c0 1.744-.48 3.096-1.439 4.055-.959.916-2.31 1.395-4.141 1.395h-2.965V38.54h3.27c1.656 0 2.964.479 3.88 1.394.915.916 1.395 2.224 1.395 3.837zm-1.308.044c0-1.395-.349-2.441-1.046-3.139-.698-.697-1.744-1.046-3.096-1.046h-1.787v8.545h1.526c1.482 0 2.572-.349 3.357-1.09.654-.741 1.046-1.831 1.046-3.27zM30.91 0C13.864 0 0 13.864 0 30.91s13.864 30.91 30.91 30.91 30.91-13.864 30.91-30.91S47.955 0 30.91 0zm28.512 30.91a28.22 28.22 0 01-1.09 7.716l-10.638-.741 11.422-11.16c.175 1.394.306 2.79.306 4.185zm-6.278 17.83l-5.58-10.419 10.637.741a28.158 28.158 0 01-5.057 9.678zM11.16 51.487l15.171-12.86 4.665 16.914-3.967 3.619a28.385 28.385 0 01-15.87-7.673zM2.398 30.91c0-.96.043-1.919.13-2.834l3.575 3.793-3.487 2.615c-.175-1.133-.218-2.354-.218-3.574zm3.836 1.438V45.21a28.404 28.404 0 01-3.531-10.201l3.531-2.66zM2.572 27.51a28.003 28.003 0 012.79-9.286l11.684-4.883L6.41 31.564l-3.837-4.055zM21.406 4.011l1.22 5.885-.043.044-7.237-2.921a31.395 31.395 0 016.06-3.008zM14.91 7.324l7.193 2.877-4.447 2.398-3.051-5.057c.087-.087.218-.174.305-.218zm2.834 5.711l4.882-2.66.131.044.262 7.979-7.237-2.137 1.962-3.226zm20.533-9.678l-5.885 14.648-7.542-8.893 7.542-6.714c2.049.13 4.01.48 5.885.959zm11.117 5.885l-16.523 8.72L38.67 3.488a28.39 28.39 0 0110.724 5.754zm-17.22 22.845l.523-13.036L43.03 32.785l-3.487 5.014-7.368-5.711zm6.714 5.842l-11.946.087 4.97-5.537 6.976 5.45zm-6.627-19.4l-.523 12.947-8.283-12.817-.262-8.588 1.352-.698 7.716 9.155zm-.915 13.122l-12.512-5.886-3.009-8.98 7.28 2.136 8.24 12.73zM15.433 16.959l2.965 8.85-11.423 5.58 8.458-14.43zm3.139 9.242l7.411 11.64L7.02 31.825l11.553-5.624zm.654.262l12.338 5.798-5.058 5.624-7.28-11.422zm7.542 12.032l19.923-.174L31.39 55.193l-4.621-16.698zm13.166-.566l3.313-4.752 3.488 4.664-6.8.088zM32.96 18.703l16.348 1.83-2.223 16.96-14.125-18.79zm16.74 1.874l7.804.131c.654 1.744 1.177 3.575 1.483 5.493l-11.51 11.292L49.7 20.577zm7.63-.305l-7.455-.13 3.836-6.278a27.272 27.272 0 013.619 6.408zm-3.88-6.8l-4.055 6.626-16.217-1.831 16.566-8.763a31.728 31.728 0 013.706 3.967zM31.782 2.441l-7.325 6.495-1.395.741-1.22-5.798a28.244 28.244 0 019.068-1.482c.305 0 .566 0 .872.043zM14.256 7.803l3.008 4.97-11.596 4.882c2.049-3.923 5.013-7.28 8.588-9.852zM6.67 45.907v-13.69l19.4 6.148-15.17 12.86a27.33 27.33 0 01-4.229-5.318zm20.926 13.34l3.662-3.357 3.532 3.27a28.523 28.523 0 01-3.88.262c-1.134 0-2.224-.044-3.314-.175zm7.76-.174l-3.53-3.27h12.947a28.127 28.127 0 01-9.417 3.27zm10.158-3.662H31.738l15.39-16.96 5.71 10.682c-2.049 2.485-4.534 4.577-7.324 6.278zm76.864-5.406c-.654 0-1.22-.523-1.22-1.22v-23.98l-12.12 23.934a1.232 1.232 0 01-1.09.654 1.23 1.23 0 01-1.09-.654l-12.12-23.934v23.978c0 .654-.523 1.22-1.22 1.22a1.218 1.218 0 01-1.221-1.22v-28.99c0-.567.392-1.047.915-1.177.523-.131 1.09.13 1.352.61l13.297 26.332 13.297-26.332c.261-.48.828-.741 1.351-.61.523.13.916.61.916 1.177v28.991c.174.698-.393 1.22-1.047 1.22zm-42.595-.435c-4.97 0-9.068-4.054-9.068-9.068 0-.654.523-1.22 1.22-1.22.654 0 1.221.522 1.221 1.22a6.67 6.67 0 0013.34 0V19.837c0-.654.524-1.22 1.221-1.22.654 0 1.221.523 1.221 1.22v20.665c-.087 5.014-4.185 9.068-9.155 9.068z" fill="#fff"/></svg>