<svg width="179" height="180" fill="none" xmlns="http://www.w3.org/2000/svg"><g filter="url(#filter0_d)"><circle cx="89.71" cy="74.709" r="58.71" fill="#FFDD02"/></g><path d="M94.669 91.334v-2.838a21.856 21.856 0 01-9.333 0v2.838a10.512 10.512 0 00-10.5 10.499A1.165 1.165 0 0076.003 103h27.999a1.167 1.167 0 001.167-1.167 10.513 10.513 0 00-10.5-10.5zm20.999-39.666h-5.833V50.5a3.501 3.501 0 00-3.5-3.5H73.669a3.5 3.5 0 00-3.5 3.5v1.167h-5.833a3.5 3.5 0 00-3.5 3.5V57.5a10.514 10.514 0 009.39 10.439 19.805 19.805 0 0039.548 0 10.512 10.512 0 009.394-10.44v-2.333a3.501 3.501 0 00-3.5-3.5zM70.169 65.585a8.18 8.18 0 01-7-8.084v-2.334a1.167 1.167 0 011.167-1.166h5.833v11.584zm32.915-3.003l-5.696 5.55 1.344 7.838a1.167 1.167 0 01-1.692 1.23l-7.038-3.7-7.038 3.7a1.167 1.167 0 01-1.693-1.23l1.344-7.838-5.694-5.55a1.167 1.167 0 01.647-1.99l7.869-1.144 3.515-7.13a1.213 1.213 0 012.09 0l3.52 7.13 7.869 1.143a1.168 1.168 0 01.653 1.99zm13.751-5.081a8.183 8.183 0 01-7 8.084V54h5.833a1.166 1.166 0 011.167 1.166V57.5z" fill="#010D1B"/><defs><filter id="filter0_d" x=".501" y=".75" width="178.416" height="178.416" filterUnits="userSpaceOnUse" color-interpolation-filters="sRGB"><feFlood flood-opacity="0" result="BackgroundImageFix"/><feColorMatrix in="SourceAlpha" values="0 0 0 0 0 0 0 0 0 0 0 0 0 0 0 0 0 0 127 0"/><feOffset dy="15.249"/><feGaussianBlur stdDeviation="15.249"/><feColorMatrix values="0 0 0 0 0 0 0 0 0 0 0 0 0 0 0 0 0 0 0.15 0"/><feBlend in2="BackgroundImageFix" result="effect1_dropShadow"/><feBlend in="SourceGraphic" in2="effect1_dropShadow" result="shape"/></filter></defs></svg>