<svg width="73" height="73" fill="none" xmlns="http://www.w3.org/2000/svg"><path d="M59.424 72.888h-44.95C7.025 72.888.988 66.85.988 59.403V14.452C.988 7.004 7.025.967 14.474.967h44.95c7.449 0 13.485 6.037 13.485 13.485v44.95c0 7.449-6.037 13.486-13.485 13.486z" fill="#27AE60"/><g opacity=".5" clip-path="url(#clip0)"><path d="M54.267 53.376l-.858-3.435a4.987 4.987 0 00-3.27-3.547l-6.297-2.099c-1.536-.64-2.239-3.112-2.39-4.051a5.95 5.95 0 002.103-3.868 1.167 1.167 0 01.173-.738.715.715 0 00.491-.429c.412-.998.67-2.052.767-3.127a.688.688 0 00-.021-.173 1.84 1.84 0 00-.694-1.042v-3.794c0-2.306-.704-3.251-1.446-3.8-.141-1.11-1.33-3.355-5.71-3.355a7.462 7.462 0 00-7.156 7.155v3.794a1.84 1.84 0 00-.694 1.042.688.688 0 00-.021.173 10.7 10.7 0 00.767 3.129.608.608 0 00.43.41c.08.04.23.248.23.755a5.95 5.95 0 002.115 3.875c-.15.938-.849 3.41-2.341 4.033l-6.353 2.11a4.988 4.988 0 00-3.269 3.544l-.858 3.435a.716.716 0 00.692.892h32.916a.716.716 0 00.694-.889z" fill="#000"/></g><defs><clipPath id="clip0"><path fill="#fff" transform="translate(19.941 19.918)" d="M0 0h34.347v34.347H0z"/></clipPath></defs></svg>