<svg xmlns="http://www.w3.org/2000/svg" width="10" height="15"><path fill="#B8B8B8" d="M9.421 5.827c-.386.61-1.002 1.187-1.85 1.731-.716.469-1.166.812-1.348 1.029-.308.369-.1 1.119-.1 1.119H2.624v-.882c0-.676.317-1.074.591-1.539.273-.465.758-.918 1.456-1.36 1.107-.703 1.558-1.193 1.558-1.923 0-.579-.57-.941-1.404-.941-1.032 0-3.444.613-4.825 1.351V.882C1.1.345 3.397 0 5.248 0c1.524 0 2.583.224 3.45.9C9.567 1.576 10 2.496 10 3.661c.001.834-.192 1.556-.579 2.166zM6.123 15H2.624v-3.529h3.499V15z"/></svg>