<svg width="73" height="73" fill="none" xmlns="http://www.w3.org/2000/svg"><path d="M58.893 72.888h-44.95C6.492 72.888.456 66.85.456 59.403V14.452C.457 7.004 6.494.967 13.942.967h44.95c7.45 0 13.486 6.037 13.486 13.485v44.95c0 7.449-6.037 13.486-13.485 13.486z" fill="#EB5757"/><path d="M50.974 22.63H21.195v27.918h29.779V22.631zm0-1.861v-4.653a2.792 2.792 0 00-2.792-2.792H23.987a2.791 2.791 0 00-2.792 2.792v4.653h29.779zM21.195 52.408v4.653a2.792 2.792 0 002.792 2.792h24.195a2.792 2.792 0 002.792-2.792v-4.653H21.195zm16.75 3.722h-3.722a.93.93 0 110-1.86h3.723a.93.93 0 010 1.86z" fill="#010D1B" fill-opacity=".4"/></svg>