<svg width="73" height="73" fill="none" xmlns="http://www.w3.org/2000/svg"><path d="M58.55 72.89H13.598C6.15 72.89.113 66.853.113 59.405V14.454C.113 7.006 6.15.969 13.6.969h44.95c7.449 0 13.485 6.037 13.485 13.485v44.95c0 7.449-6.037 13.486-13.485 13.486z" fill="#9B51E0"/><path opacity=".5" d="M43.038 19.326c-2.342 0-4.655.473-6.795 1.376a17.397 17.397 0 00-6.8-1.376c-9.64 0-17.482 7.837-17.482 17.47 0 9.632 7.842 17.47 17.482 17.47 2.41 0 4.709-.49 6.8-1.376a17.513 17.513 0 006.795 1.376c9.64 0 17.483-7.838 17.483-17.47 0-9.633-7.843-17.47-17.483-17.47zM29.443 46.501c-5.356 0-9.712-4.353-9.712-9.706 0-5.351 4.356-9.704 9.712-9.704 5.355 0 9.712 4.353 9.712 9.704 0 5.352-4.357 9.706-9.712 9.706zm14.558-.047a17.358 17.358 0 002.924-9.658c0-3.568-1.078-6.889-2.923-9.657 4.904.484 8.749 4.63 8.749 9.657 0 5.026-3.845 9.173-8.75 9.658z" fill="#010D1B"/></svg>