<svg width="773" height="184" fill="none" xmlns="http://www.w3.org/2000/svg"><path d="M239.04 140.12c2.52-5.64 6-12.48 9.48-18.96 3.72-.72 7.56-1.56 11.04-2.4-.84 1.8-1.56 3.48-2.04 4.92-1.08 3.12-1.56 5.64-1.56 7.92 0 6 3.36 10.2 10.56 10.2 7.2 0 16.2-5.04 19.92-12.6 1.44-3.12 1.68-5.88.72-7.92-1.08-2.16-2.88-2.76-3.96-.48-3.72 8.04-10.8 16.2-15.6 16.2-1.2 0-1.68-1.08-1.68-3 0-3.84 3.12-10.92 7.68-18.6 3.6-6.36 5.88-11.04 5.88-15.12 0-2.64-.84-4.68-2.04-6-1.56-1.8-3-1.56-4.8.84-2.64 3.6-6.24 9.84-9.48 16.2a90.652 90.652 0 01-10.92 2.76c1.68-3 3.24-5.76 4.56-8.16 1.2-2.04 1.68-4.08 1.68-6.24s-.72-4.56-1.8-6.36c-1.2-2.16-3-2.28-4.56 0-4.56 6.84-9.72 15.72-13.68 23.28-3.36.48-5.76 6.48-3.36 6.72-.84 1.8-1.44 3.48-1.92 4.68-.72 2.4-1.08 4.44-1.08 6.24 0 2.88.96 4.92 2.64 6.6 1.92 1.92 3.48 1.2 4.32-.72zm53.135-28.56c-4.32 6-6.48 12.72-6.48 17.88 0 7.08 3.84 12.24 10.92 12.24 4.8 0 10.2-3.72 13.68-7.08.96 4.44 4.44 7.56 10.44 7.56 7.32 0 15-6.36 18.12-12.96 1.68-3.48.96-6.72.48-7.8-1.2-2.52-2.28-2.4-3.6 0-3.96 7.8-9.96 15.96-14.28 15.96-1.2 0-1.68-1.08-1.68-2.88 0-8.04 10.08-21.12 13.2-27.72 3.12-6.24 2.04-11.52 0-13.92-1.44-1.68-3.48-1.56-4.92.84l-2.28 3.72c-1.08-3.12-3.72-5.28-8.04-5.28-6.12 0-15.96 5.64-25.56 19.44zm6 24.84c-1.2 0-1.68-1.44-1.68-3.6 0-3.84 2.04-10.2 5.64-15.84 6.12-9.84 14.4-17.4 16.8-17.4 1.2 0 1.44.84 1.44 2.28 0 3.12-2.16 9-6.84 17.16-5.88 10.08-11.4 17.4-15.36 17.4zm90.594-43.08c-1.2-2.16-3-2.28-4.56 0-7.44 11.16-16.68 27.96-18.96 34.68-.72 2.4-1.08 4.44-1.08 6.24 0 2.88.96 4.92 2.64 6.6 1.92 1.92 3.48 1.2 4.32-.72 4.92-10.8 10.32-22.56 16.92-29.52 6.6-7.44 12.48-10.8 13.56-10.8.84 0-1.08 3.12-3.6 7.08-4.68 7.44-10.2 18.48-10.2 24.96 0 6.24 3.48 10.32 11.52 10.32 7.2 0 15.96-6.36 19.32-12.96 1.68-3.24 1.56-6.96.6-8.4-1.08-1.68-2.76-1.8-3.96.48-4.32 8.04-10.56 15.84-14.64 15.84-1.56 0-2.4-1.56-2.4-4.08 0-4.44 4.08-12.36 7.92-18.48 3.84-6.72 6-10.56 6-13.2 0-4.56-3.24-8.76-6.72-8.76-4.32 0-10.08 3.96-15.24 8.76.12-.72.12-1.56.12-2.4 0-1.92-.48-3.84-1.56-5.64zm47.855 18.48c5.16-8.76 11.76-14.28 13.92-13.32.6.24.84 1.68.84 3.84 0 3.96-1.44 10.08-4.32 15.72-4.92 9.96-10.32 16.56-14.04 16.56-3.12 0-3.96-8.64-.24-16.32l3.84-6.48zm24.96-5.88c0-6.12-3.48-12.6-10.68-12.6-3.24 0-6.72 1.56-9.72 3.6 0-1.56-.24-3.12-1.2-4.44-.96-1.32-2.52-1.8-4.68.84-7.44 9.96-27.24 47.28-30.72 58.68-1.08 3.36-1.44 5.88-1.44 7.8 0 2.52.6 4.2 2.4 6.48 1.2 1.44 2.64.96 3.6-1.2 5.04-11.76 10.2-22.08 15.48-31.92 2.76 6.48 8.64 9.72 18.12 9.72 9.96 0 20.04-3.36 25.44-13.08 2.04-3.6 1.92-6.96 1.68-8.16-.48-2.4-3-3-4.44-.24-3.48 6.96-10.32 14.88-19.2 16.68 3.84-3.12 7.8-8.52 10.68-15.12 2.76-5.76 4.68-11.88 4.68-17.04zm36.92-5.4c.36 0 .36 2.64.36 3.48 0 8.64-4.56 17.64-6.96 21.72-1.56-3.12-1.92-7.08-1.92-9.72 0-9.36 6.12-15.48 8.52-15.48zm-20.64 30.12c0-4.68 1.44-9.48 3.6-13.92 0 4.32 2.16 9.96 6.36 14.52-2.64 2.76-5.4 4.56-7.44 4.56-2.16 0-2.52-3.12-2.52-5.16zm37.44-.36c1.32-2.28 2.16-5.4 2.16-6.96 0-1.68-1.32-3.36-3-3.36-.72 0-1.2.48-1.92 1.56-3.72 6.12-7.2 12.24-12 12.24-.6 0-1.32-.24-1.8-.6 3.12-3.72 9.48-12.84 9.48-24.84 0-4.8-1.68-6.6-3.84-8.76-.72-.72-1.2-1.32-1.8-2.04-2.28-3.24-3.96-5.28-8.76-5.28-10.92 0-25.32 19.8-25.32 33 0 3.84.96 7.44 3.24 10.44 3.36 4.44 7.92 6.12 11.88 6.12 1.56 0 3.24-.36 4.32-.72 2.88-.96 4.68-2.16 6.6-3.72 1.68 1.08 4.32 2.04 7.2 2.04 6.6 0 11.04-4.68 13.56-9.12zm53.074-8.4c0-2.64-2.16-2.64-3.72-.6-4.68 6.48-10.68 11.52-18.12 16.08 3.96-9.12 8.76-17.88 12.6-25.44 3-6 4.32-9.24 4.32-12.48 0-2.52-.84-4.8-1.92-6.12-1.56-1.8-3.72-1.92-5.16.84-.72 1.32-1.44 2.52-1.92 3.36-1.08-2.88-3.72-5.04-7.68-5.04-11.76 0-32.04 19.8-32.04 36.96 0 7.2 3.96 12.12 10.8 12.12 3.24 0 6.36-1.2 9-3l-1.56 3.96c-14.64 5.04-26.28 17.4-26.28 28.2 0 3.72 1.8 6.84 3.48 9.36 2.52 3.36 5.52 3.84 8.4 2.76 9.72-4.56 18.48-22.8 24.84-38.28 9.84-3.6 18.12-8.4 22.68-15.48 1.8-2.76 2.28-5.28 2.28-7.2zm-41.4 14.64c-1.08 0-1.56-1.56-1.56-3.84 0-13.92 18.48-32.76 22.56-32.76.84 0 1.2.72 1.2 2.16 0 3.12-2.16 9-6.84 17.16-5.88 10.08-11.52 17.4-15.36 17.28zm2.52 13.92c-2.28 6-4.92 11.28-7.32 15.48-3.72 6.48-6.72 10.08-7.8 9.24-1.2-1.08.36-6.72 3.84-12.6 2.52-4.2 6.24-8.52 11.28-12.12zm43.964-38.88c-4.32 6-6.48 12.72-6.48 17.88 0 7.08 3.84 12.24 10.92 12.24 4.8 0 10.2-3.72 13.68-7.08.96 4.44 4.44 7.56 10.44 7.56 7.32 0 15-6.36 18.12-12.96 1.68-3.48.96-6.72.48-7.8-1.2-2.52-2.28-2.4-3.6 0-3.96 7.8-9.96 15.96-14.28 15.96-1.2 0-1.68-1.08-1.68-2.88 0-8.04 10.08-21.12 13.2-27.72 3.12-6.24 2.04-11.52 0-13.92-1.44-1.68-3.48-1.56-4.92.84l-2.28 3.72c-1.08-3.12-3.72-5.28-8.04-5.28-6.12 0-15.96 5.64-25.56 19.44zm6 24.84c-1.2 0-1.68-1.44-1.68-3.6 0-3.84 2.04-10.2 5.64-15.84 6.12-9.84 14.4-17.4 16.8-17.4 1.2 0 1.44.84 1.44 2.28 0 3.12-2.16 9-6.84 17.16-5.88 10.08-11.4 17.4-15.36 17.4zm80.759 3.6c2.76-6.24 6.24-13.44 9.6-19.8l.24-.6c2.64-.36 5.28-.84 7.56-1.32-.6 2.4-.96 4.8-.96 6.96 0 9.6 6.12 16.68 17.04 16.56 9.36-.12 19.68-6 24.24-13.2 2.04-3.36 2.04-6.48 1.68-7.56-.96-2.52-2.64-2.04-3.84-.24-4.68 7.2-13.44 16.44-22.56 16.32-3.24-.12-5.28-3.36-5.28-8.64 0-3.6 1.08-8.4 3.6-13.44 4.8-9.6 12.48-17.52 14.04-16.32.48.48-.48 2.64-1.68 5.04-2.4 5.52-2.64 7.44-2.64 8.88 0 3.24 1.92 5.52 4.2 6.84 2.4 1.2 3.36.96 4.2-1.32.48-1.32 1.32-3.12 2.28-4.92 2.16-4.68 4.2-9.12 2.28-13.08-1.32-2.64-3.24-4.68-6.84-6.72-1.44-.84-2.88-.96-4.44-.96-6.84 0-16.2 6.36-22.44 18.36-1.92.48-4.08.96-6.48 1.44 1.08-1.92 1.8-3.36 2.4-4.56 1.32-2.64 1.8-5.16 1.8-7.44 0-2.64-.72-4.68-1.92-6-1.68-1.8-3.12-1.56-4.8.84-2.88 4.08-7.2 11.52-10.92 19.32-1.8.24-3.48.48-5.04.72.36-1.92.48-2.88.6-4.56.6-7.08-1.32-8.76-3.72-11.4l-1.56-1.68c-2.04-3.48-5.04-4.92-7.8-4.92-1.8 0-3.72.84-4.8 1.8-4.08 3.96-6.84 7.44-9.48 12.96-.6 1.32.48 2.52 2.76 2.52s4.32-.6 6.48-2.76c2.4-2.4 3.96-4.32 5.04-5.52 1.92-2.28 2.64-3.12 3.48-2.64.84.6.36 7.92-.6 11.88-.72 2.88-3 9-4.8 12.24-5.28 9.72-11.64 14.28-13.68 12.48-.72-.6-.6-3 .24-7.44.72-3.84-1.2-6.36-3.36-7.44-1.92-1.08-4.2-.84-4.92.84-1.2 2.64-1.8 5.28-1.8 7.68 0 2.16.6 4.44 2.16 6.48 3.36 4.44 7.92 6.12 11.88 6.12 8.76 0 17.28-9.96 21.6-19.8 1.32-.12 2.76-.36 4.32-.6-.84 1.92-1.44 3.72-2.04 5.4-1.08 3-1.56 5.64-1.56 7.32 0 3.12 1.08 5.16 2.28 6.36 1.8 2.04 3 1.8 3.96-.48zm110.899-10.8c1.8-3.48 1.32-6.96.84-8.04-.96-2.28-3-1.92-4.2.12-4.32 7.56-10.44 15.84-14.4 15.84-1.56 0-2.28-1.2-2.28-3.36 0-4.68 4.68-12.84 8.16-18.48 4.2-6.96 6.72-12.24 6.72-16.32 0-2.64-.6-4.56-1.8-6.24-1.44-2.04-3.36-1.56-5.04.72-4.32 5.52-7.44 13.68-14.52 25.2-6.12 9.6-12.48 17.76-15.6 17.76-2.64 0-2.28-4.44-.12-9.24 4.2-9.24 12.96-23.16 12.96-28.08 0-1.8-.48-3.84-1.8-5.52-1.44-1.8-3.6-2.04-5.16 0-7.44 10.44-13.56 22.44-16.2 30-1.08 2.88-1.56 5.64-1.56 8.28 0 5.16 2.4 9.72 8.52 9.72 6.12 0 11.52-3.72 15.6-8.28.48 5.4 4.08 8.88 11.16 8.88 7.44 0 15.24-6.12 18.72-12.96z" fill="#D74D40"/><path d="M17.92 77H4.88V23.64h13.04v20.32h16.56V23.64h13.04V77H34.48V56.04H17.92V77zm76.502 0l-3.76-11.04h-19.28L67.622 77h-13.76l19.92-53.36h14.56L108.262 77h-13.84zm-18.88-23.12h11.04l-5.52-16.24-5.52 16.24zm52.1 23.12h-13.04V23.64h11.84l15.2 26.24 15.12-26.24h11.84V77h-13.04V50.12l-9.44 16.56h-9.04l-9.44-16.56V77zm85.659 0h-13.04V23.64h13.04v20.32h16.56V23.64h13.04V77h-13.04V56.04h-16.56V77zm74.662 0h-32.88V23.64h32.16v11.92h-19.28v8.48h17.12v12h-17.12v8.88h20V77zm45.109 0h-16.08V23.64h13.76c6.027 0 10.614 1.147 13.76 3.44 1.92 1.333 3.44 3.12 4.56 5.36 1.174 2.187 1.76 4.427 1.76 6.72 0 3.36-1.466 6.427-4.4 9.2 4.534 3.36 6.8 7.493 6.8 12.4 0 4.853-2.106 8.933-6.32 12.24-3.413 2.667-8.026 4-13.84 4zm-3.52-22.24v10.72h3.12c1.12 0 2.08-.053 2.88-.16.8-.107 1.627-.32 2.48-.64.907-.373 1.574-.933 2-1.68.48-.747.72-1.68.72-2.8 0-1.013-.186-1.867-.56-2.56-.373-.693-.826-1.227-1.36-1.6-.48-.373-1.173-.64-2.08-.8-.853-.213-1.6-.347-2.24-.4-.64-.053-1.466-.08-2.48-.08h-2.48zm0-19.92v9.84h2c2.774 0 4.667-.4 5.68-1.2 1.014-.907 1.52-2.16 1.52-3.76 0-1.813-.533-3.067-1.6-3.76-1.066-.747-2.933-1.12-5.6-1.12h-2zm80.487-2l-9.28 8.56c-2.186-2.507-4.293-4.32-6.32-5.44-1.973-1.12-4.16-1.68-6.56-1.68-4.266 0-7.92 1.573-10.96 4.72-2.986 3.093-4.48 6.88-4.48 11.36 0 4.427 1.52 8.213 4.56 11.36 3.04 3.093 6.694 4.64 10.96 4.64 4.534 0 8.88-2.427 13.04-7.28l9.28 8.56c-3.466 3.787-6.986 6.533-10.56 8.24-3.52 1.707-7.413 2.56-11.68 2.56-7.893 0-14.64-2.747-20.24-8.24-5.6-5.493-8.4-12.107-8.4-19.84 0-7.787 2.8-14.427 8.4-19.92 5.654-5.493 12.454-8.24 20.4-8.24 4.214 0 8.027.827 11.44 2.48 3.414 1.653 6.88 4.373 10.4 8.16zM451.626 77h-32.88V23.64h32.16v11.92h-19.28v8.48h17.12v12h-17.12v8.88h20V77zm42.629-17.76h-.56V77h-13.04V23.64h13.6c6.4 0 11.253 1.493 14.56 4.48 3.787 3.307 5.68 7.707 5.68 13.2 0 5.44-1.867 9.893-5.6 13.36-3.36 3.04-8.24 4.56-14.64 4.56zm-.64-23.68v11.76h1.28c2.56 0 4.373-.453 5.44-1.36 1.067-.907 1.6-2.427 1.6-4.56 0-2.133-.533-3.627-1.6-4.48-1.067-.907-2.88-1.36-5.44-1.36h-1.28zM554.103 77l-3.76-11.04h-19.28L527.303 77h-13.76l19.92-53.36h14.56L567.943 77h-13.84zm-18.88-23.12h11.04l-5.52-16.24-5.52 16.24zM590.363 77h-16.08V23.64h13.76c6.027 0 10.613 1.147 13.76 3.44 1.92 1.333 3.44 3.12 4.56 5.36 1.173 2.187 1.76 4.427 1.76 6.72 0 3.36-1.467 6.427-4.4 9.2 4.533 3.36 6.8 7.493 6.8 12.4 0 4.853-2.107 8.933-6.32 12.24-3.413 2.667-8.027 4-13.84 4zm-3.52-22.24v10.72h3.12c1.12 0 2.08-.053 2.88-.16.8-.107 1.627-.32 2.48-.64.907-.373 1.573-.933 2-1.68.48-.747.72-1.68.72-2.8 0-1.013-.187-1.867-.56-2.56-.373-.693-.827-1.227-1.36-1.6-.48-.373-1.173-.64-2.08-.8-.853-.213-1.6-.347-2.24-.4a31.19 31.19 0 00-2.48-.08h-2.48zm0-19.92v9.84h2c2.773 0 4.667-.4 5.68-1.2 1.013-.907 1.52-2.16 1.52-3.76 0-1.813-.533-3.067-1.6-3.76-1.067-.747-2.933-1.12-5.6-1.12h-2zM632.77 77h-13.04V23.64h13.04v20.32h16.56V23.64h13.04V77h-13.04V56.04h-16.56V77zm67.462-54.8c7.84 0 14.56 2.773 20.16 8.32 5.653 5.493 8.48 12.08 8.48 19.76 0 7.68-2.827 14.293-8.48 19.84-5.6 5.547-12.32 8.32-20.16 8.32-7.947 0-14.72-2.773-20.32-8.32-5.6-5.547-8.4-12.267-8.4-20.16 0-7.467 2.853-13.947 8.56-19.44 5.707-5.547 12.427-8.32 20.16-8.32zm11.04 16.8c-3.04-3.147-6.72-4.72-11.04-4.72-4.32 0-8.027 1.573-11.12 4.72-3.04 3.093-4.56 6.8-4.56 11.12 0 4.533 1.493 8.373 4.48 11.52 3.04 3.147 6.773 4.72 11.2 4.72 4.32 0 8-1.573 11.04-4.72 3.04-3.147 4.56-6.933 4.56-11.36s-1.52-8.187-4.56-11.28z" fill="#010D1B"/></svg>