<svg width="298" height="39" fill="none" xmlns="http://www.w3.org/2000/svg"><g clip-path="url(#clip0)" fill="#002468"><path fill-rule="evenodd" clip-rule="evenodd" d="M5.98 24.135c-.364.494-.661.988-1.025 1.515-1.024 1.58-1.123 1.877-.297 2.766.991 1.119 2.709 3.128 3.766 3.95.826.626 1.156.231 2.213-.592.496-.395.992-.823 1.487-1.152.529.164 1.718 1.12 3.766 1.843.86.297.66.165 1.057 1.745 1.024 3.919.958 2.964 5.517 3.03 1.883.033 1.553-.692 1.454-3.326-.033-.889.099-.955.892-1.317.231-.098.793-.428 1.321-.724.628-.362 1.024-.692 1.652-.198.628.461 1.057.856 1.42 1.12 1.19.889 1.256.56 2.511-1.712 1.19-2.108 1.355-1.844-.727-4.412-.958-1.186-.297-.79-.23-2.865-1.19 3.03-4.923 5.73-9.713 4.741-4.163-.889-7.004-3.687-8.854-6.157-1.949-2.6-3.634-7.77-1.883-11.655.76-1.68 1.982-3.062 3.634-3.787 2.28-1.053 3.832-.823 6.277-.46-.165-.067-.66-.297-.892-.429-.397-.263-.364-.33-.529-.856-.231-.724-.43-1.547-.925-1.877-.43-.263-2.312-.691-3.534-.823-1.223-.131-1.025.23-1.124 1.153l-.132 1.086c-3.964.626-2.577 1.185-5.186-.823-.628-.46-.925-.494-1.256-.33-.628.297-1.685 1.054-2.28 1.482-1.387.955-1.09 1.219.893 3.754-.562 1.152-1.124 1.844-1.454 3.391-.826-.033-1.85 0-2.676.066-.793.033-1.09.395-1.09 1.152A90.604 90.604 0 000 16.431c0 .362 0 .889.033 1.25.1.857.925 1.186 1.685 1.384.958.23 2.081.263 2.411.955.628 1.35 1.157 2.667 1.85 4.115zm42.882-10.931c.562.395 1.024 1.12 1.156 1.91.132.79.562 1.481 1.024 1.81.463.363.595.692.43.824-.166.131-.496.033-.496.033s-1.156-1.054-1.552-1.68c-.397-.625-1.19-2.304-1.19-2.37l.628-.527z"/><path fill-rule="evenodd" clip-rule="evenodd" d="M10.473 14.915c1.09-5.235 5.682-6.19 9.712-4.576.694-.89 1.355-1.745 1.95-2.404-1.751-.79-3.635-1.12-5.518-.922-3.865.461-6.442 3.82-6.144 7.902zm3.04 16.99c-.298 1.482-1.091 3.293-1.818 4.148.694-1.02 1.123-3.259 1.09-4.609-.726.428-2.675 1.515-3.27 1.68-.76.197-1.289-.198-1.95-.824l-.33-.33a55.665 55.665 0 01-3.7 3.688C1.421 37.535.496 38.655.496 38.655c.1.296.628-.033 1.024-.198 1.355-.626 4.823-2.37 6.508-3.292 1.024-.593 1.652.23 1.95.955.528 1.218.429 2.14.891 2.205.132.033.265-.033.463-.23.594-.659 1.387-2.502 1.916-3.424.528-.922.66-1.844.66-2.503a2.054 2.054 0 00-.396-.263zM24.446 2.7c.463.922.859 2.107.727 2.93-.198 1.317-.628 2.075-3.998 5.499-3.039 3.095-4.988 5.367-7.763 11.03 1.42 1.515 3.469 3.16 5.45 4.116 2.016-1.811 3.998-3.128 6.377-4.38.363-.197.76-.395 1.156-.592.1.428.165.856.165 1.284.264 4.116-2.015 5.17-5.88 4.675 1.552.659 3.766.462 5.352-.098 2.048-.725 3.27-1.877 3.997-3.886a9.099 9.099 0 00.43-3.819 49.644 49.644 0 014.36-1.646c-.495.33-1.42.757-1.685 1.251-.132.263-.132.527.232.659 1.189.428 3.105.032 4.724-.955 1.123-.692 2.048-1.647 2.444-2.371.76.56 1.685 1.054 2.676.889a1.84 1.84 0 001.322-.856s.793.198 1.883.46c1.09.264 1.916.495 2.709.857.825.362 1.453.889 1.85.625.396-.263.264-.493-.034-.757-.297-.263-1.09-1.185-1.354-1.547-.231-.362-.33-.626-.231-.692.1-.066.1.297.396.692.298.395.826 1.02 1.156 1.317.33.296.43.494.562.362.132-.099.1-.527-.363-1.02-.463-.495-.991-.857-1.057-1.68-.232-2.107-1.322-3.753-2.907-5.103C44.5 7.672 40.37 6.223 37.198 5.86c-2.346-.264-4.361-.066-5.187-.33-1.19-.362-2.709-2.436-4.724-4.016C26.231.692 25.207-.033 23.786 0c-.627 0-.859.198-.859.428 0 .165.397.593.529.725.396.493.627.79.99 1.547zm-4.658 8.133a8.498 8.498 0 00-4.064-.1c-3.204.758-5.054 3.952-4.393 7.508.363-4.248 3.468-5.696 6.706-5.17.562-.658 1.156-1.448 1.75-2.238zm7.895-2.7c4.097-1.976 9.68-2.108 12.587-.593-3.502-1.185-7.995-.56-11.496 1.152-1.19.593-2.445.1-1.09-.56zm13.347 6.223c-1.09.098-2.478.46-3.304.79.76-.099 2.18-.33 3.27-.428-.032.33-.131.625-.495.757-.33.132-.43.527-.43.527-1.618.066-3.93.658-5.847 1.251-3.733 1.152-7.466 2.667-10.802 4.708 4.328-3.95 11.86-8 17.773-8.231a1.26 1.26 0 00-.165.626zm-1.355 2.304c-.396.494-1.123 1.515-2.675 2.272-.827.395-1.983.823-3.27.461.528.099 1.618-.066 2.477-.494 1.123-.56 2.477-1.481 2.808-2.173l.66-.066zm9.812-1.778c.066.297-.066.23-.1.1-.065-.231-.33-.758-.495-.89-.23-.164-.165-.329.066-.296.298.066.463.823.53 1.086z"/><path fill-rule="evenodd" clip-rule="evenodd" d="M44.797 16.067s.264-.56.264-1.284 3.04-.757 3.37.033c.33.823 1.222 2.074 1.784 2.634.594.56.528.626.231.626-.33 0-1.09-.659-2.445-1.12-1.354-.494-3.204-.889-3.204-.889zm-3.933-.197l-.165.263s1.223 1.087 2.379.922c1.156-.131 1.651-1.449 1.651-1.449-.528.824-1.057 1.252-1.75 1.252-.727 0-1.586-.527-2.115-.988z"/><path d="M78.816 29.023v-5.606h-6.243c-2.407 0-4.513 0-5.49-1.794-.226-.374-.527-1.196-.527-3.738 0-1.121.075-2.915.752-4.036.977-1.794 2.783-1.794 5.19-1.794h6.017V6.448h-9.552c-2.558 0-5.867.3-7.898 2.916-1.58 2.018-1.956 4.858-1.956 8.596 0 4.336.677 6.503 2.106 8.223 1.806 2.317 4.212 2.765 7.748 2.765h9.853v.075zm2.632-17.043v4.26h8.575c.677 0 1.429 0 1.955.674.301.373.301.822.301 1.12v.225h-7.521c-.978 0-2.106 0-3.009.748-1.354 1.046-1.504 2.84-1.504 4.335 0 1.346.075 3.588 1.353 4.784.903.822 2.106.897 3.16.897h10.078c.978 0 2.106-.075 2.934-.897.752-.822.827-1.794.827-2.765v-7.102c0-1.346-.225-3.439-1.58-4.784-.751-.748-2.105-1.495-4.212-1.495H81.448zm10.907 10.39v1.047c0 .299 0 .598-.301.822-.226.15-.602.224-.903.224h-3.31c-.3 0-.676-.074-.902-.299-.226-.224-.226-.448-.226-.747 0-.3 0-.598.226-.822.3-.225.752-.3.902-.3h4.514v.075zm26.475 6.653V11.98h-6.318v5.98h-5.641v-5.98h-6.318v17.043h6.318V22.52h5.641v6.503h6.318zm14.592 0V16.465h6.393V11.98H120.71v4.485h6.394v12.558h6.318zm25.648 0v-4.56h-8.274c-1.128 0-2.331.075-2.858-.822-.226-.374-.301-.897-.301-1.345h9.327c.602 0 1.128 0 1.655-.449.977-.747 1.053-2.018 1.053-3.14 0-1.868-.226-4.41-1.806-5.68-1.353-1.122-3.61-1.122-7.07-1.122-3.234 0-6.468.075-8.048 1.645-1.579 1.57-1.354 4.111-1.354 7.25 0 3.065.151 4.86.903 6.13 1.354 2.243 3.535 2.243 6.092 2.243h10.681v-.15zm-11.433-10.69c-.075-.896 0-1.569.677-1.868.451-.224 1.429-.299 2.181-.299.301 0 1.129 0 1.655.15.903.224 1.129.672 1.129 1.12 0 .3-.151.898-1.054.898h-4.588zm33.997 10.69l-6.844-8.746 6.243-8.297h-7.221l-2.783 4.335-2.783-4.335h-7.221l6.243 8.297-6.844 8.746h7.371l3.159-4.784 3.159 4.784h7.521zm1.229.206h7.754l5.494-14.913c.075-.15.226-.524.376-.524.151 0 .302.45.377.524l5.495 14.913h7.752L201.38 8.771c-.903-2.173-3.462-2.323-4.893-2.323-1.355 0-3.913.15-4.892 2.323l-8.732 20.458zm47.647 0V15.366c0-.9-.075-3.448-3.688-3.448-1.957 0-2.484.675-3.011 1.274l-6.248 7.794c-.15.15-.301.45-.602.45s-.301-.225-.301-.45l.301-8.843h-6.323v14.088c0 2.998 2.258 3.223 3.613 3.223s2.108-.15 3.237-1.499l6.097-7.569c.226-.224.376-.524.602-.524.226 0 .226.225.226.524l-.301 8.843h6.398zm3.162-4.571h-1.732v4.571h21.453v-4.571h-1.732l-5.118-10.791c-.903-1.799-2.559-1.874-3.914-1.874-1.28 0-3.011.075-3.914 1.874l-5.043 10.79zm8.731-6.97c.075-.15.15-.374.301-.374s.226.225.301.375l2.71 7.044h-6.022l2.71-7.044zm29.808 11.541v-4.571h-8.281c-1.129 0-2.333.075-2.86-.825-.226-.374-.301-.899-.301-1.348h9.334c.602 0 1.129 0 1.656-.45.978-.75 1.053-2.023 1.053-3.147 0-1.874-.225-4.422-1.806-5.696-1.355-1.124-3.613-1.124-7.076-1.124-3.236 0-6.473.075-8.053 1.649-1.581 1.573-1.355 4.121-1.355 7.269 0 3.072.15 4.87.903 6.145 1.355 2.248 3.538 2.248 6.097 2.248h10.689v-.15zm-11.442-10.716c-.075-.9 0-1.574.678-1.874.452-.224 1.43-.3 2.183-.3.3 0 1.128 0 1.656.15.903.225 1.129.675 1.129 1.125 0 .3-.151.899-1.054.899h-4.592zm19.721 10.716h4.667c1.807 0 4.366-.15 5.946-2.323 1.355-1.873 1.355-5.246 1.355-6.67 0-1.648-.15-4.496-1.806-6.22-1.581-1.648-3.839-1.798-4.968-1.798h-7.979c-.828 0-1.656.075-2.408.6-.979.674-1.129 1.648-1.129 2.622V34.7h6.322v-5.471zm0-4.571v-7.12c0-.224.076-.449.226-.599.075-.075.376-.225.527-.225h2.258c.377 0 1.731.075 2.258 1.424.226.675.301 1.499.301 2.473 0 1.124 0 2.023-.376 2.698-.301.524-.978 1.349-2.333 1.349h-2.861z"/></g><defs><clipPath id="clip0"><path fill="#fff" transform="translate(0 -.001)" d="M0 0h298v39H0z"/></clipPath></defs></svg>