<svg width="99" height="99" fill="none" xmlns="http://www.w3.org/2000/svg"><path d="M80.378 98.927h-61.83C8.305 98.927 0 90.623 0 80.377V18.55C0 8.304 8.304 0 18.549 0h61.829c10.245 0 18.549 8.304 18.549 18.549v61.829c0 10.245-8.304 18.549-18.55 18.549z" fill="#3A89E6"/><g opacity=".4" fill="#010D1B"><path d="M41.455 55.174c7.599 0 13.759-6.16 13.759-13.76 0-7.599-6.16-13.759-13.76-13.759-7.598 0-13.759 6.16-13.759 13.76 0 7.598 6.16 13.759 13.76 13.759z"/><path d="M66.22 59.533a3.673 3.673 0 00-5.15-.368l-.124.123-4.133-4.133a20.737 20.737 0 10-1.622 1.62l4.134 4.134-.124.124a3.675 3.675 0 00.369 5.15l1.831 1.832 6.649-6.648-1.83-1.834zm-24.764-2.06a16.054 16.054 0 1116.052-16.058 16.071 16.071 0 01-16.052 16.054v.004zM76.79 70.102l-7.118-7.12-6.649 6.65 7.12 7.12a3.68 3.68 0 005.15.367l1.867-1.867a3.656 3.656 0 00-.37-5.15z"/></g></svg>