<svg xmlns="http://www.w3.org/2000/svg" width="90.703" height="63"><path fill-rule="evenodd" clip-rule="evenodd" fill="#FFF" d="M59.42 44.975L90.703 63H69.244l-15.189-8.752c-1.396-.806-2.208-2.236-2.36-3.795A36.04 36.04 0 0134.121 63H11.795A35.916 35.916 0 010 56.497V44.845c5.057 7.231 13.455 11.964 22.961 11.964 15.454 0 27.982-12.504 27.982-27.928C50.943 13.456 38.415.953 22.961.953 13.455.953 5.057 5.685 0 12.916V2c0-.333.082-.646.226-.922.43-.351.869-.692 1.315-1.023C1.689.02 1.842 0 2 0h42.304c8.864 6.535 14.614 17.037 14.614 28.881 0 5.684-1.33 11.057-3.688 15.833 1.361-.525 2.883-.492 4.19.261z"/></svg>