<svg width="99" height="99" fill="none" xmlns="http://www.w3.org/2000/svg"><path d="M80.378 98.928h-61.83C8.305 98.928 0 90.624 0 80.378V18.55C0 8.305 8.304 0 18.549 0h61.829c10.245 0 18.549 8.304 18.549 18.549v61.829c0 10.245-8.304 18.549-18.55 18.549z" fill="#E0E0E0"/><g opacity=".3" fill="#010D1B"><path d="M45.101 56.65a8.035 8.035 0 118.035-13.915 8.035 8.035 0 01-8.035 13.916z"/><path d="M59.986 26.811l3.504 2.023a3.425 3.425 0 011.716 3.188l-.352 5.928 2.302 3.98 5.31 2.656a3.4 3.4 0 011.902 3.08v4.048a3.43 3.43 0 01-1.909 3.077l-5.309 2.663-2.296 3.976.355 5.93a3.43 3.43 0 01-1.716 3.188l-3.506 2.024a3.42 3.42 0 01-3.618-.108l-4.955-3.27-4.598-.004-4.954 3.27a3.426 3.426 0 01-3.623.11l-3.507-2.024a3.428 3.428 0 01-1.715-3.188l.355-5.926-2.3-3.98-5.31-2.655a3.394 3.394 0 01-1.904-3.08v-4.052a3.427 3.427 0 011.91-3.078l5.31-2.658 2.296-3.976-.353-5.929a3.428 3.428 0 011.717-3.187l3.505-2.024a3.419 3.419 0 013.62.108l4.954 3.27 4.597.004 4.954-3.271a3.427 3.427 0 013.618-.113zM40.168 44.527a10.33 10.33 0 1014.111-3.781 10.341 10.341 0 00-14.11 3.78z"/></g></svg>