<svg width="50" height="51" fill="none" xmlns="http://www.w3.org/2000/svg"><circle cx="25" cy="25.689" r="24.25" fill="#44B111" stroke="#fff" stroke-width="1.5"/><path fill-rule="evenodd" clip-rule="evenodd" d="M31.403 19.322a8.918 8.918 0 00-6.35-2.633c-4.948 0-8.976 4.026-8.978 8.977 0 1.581.413 3.125 1.198 4.488L16 34.803l4.759-1.248a8.981 8.981 0 004.29 1.093h.004c4.947 0 8.975-4.027 8.977-8.977a8.926 8.926 0 00-2.627-6.35zm-6.35 13.811h-.003a7.446 7.446 0 01-3.798-1.04l-.272-.163-2.824.742.753-2.753-.177-.282a7.448 7.448 0 01-1.141-3.971c.002-4.114 3.349-7.462 7.465-7.462a7.412 7.412 0 015.275 2.188 7.42 7.42 0 012.183 5.28c-.002 4.113-3.349 7.461-7.461 7.461zm4.093-5.589c-.225-.113-1.327-.654-1.533-.73-.205-.075-.354-.111-.504.113-.15.224-.58.729-.711.878-.131.15-.262.169-.486.056-.224-.111-.947-.349-1.804-1.113-.667-.595-1.117-1.329-1.248-1.553-.131-.226-.014-.346.099-.459.101-.1.224-.262.336-.393.112-.13.149-.224.224-.373.075-.15.038-.281-.019-.393-.056-.114-.505-1.218-.692-1.667-.181-.434-.366-.377-.504-.383a9.741 9.741 0 00-.429-.008.825.825 0 00-.599.28c-.206.226-.785.768-.785 1.872s.804 2.17.916 2.32c.112.15 1.582 2.416 3.832 3.387.536.232.954.37 1.279.474.537.17 1.026.145 1.413.088.431-.064 1.327-.542 1.514-1.066.187-.523.187-.973.131-1.066-.056-.095-.207-.151-.43-.264z" fill="#FBFBFB"/></svg>