<svg width="60" height="60" fill="none" xmlns="http://www.w3.org/2000/svg"><path fill-rule="evenodd" clip-rule="evenodd" d="M51.125 9.101A29.12 29.12 0 0030.393.505C14.238.505 1.087 13.653 1.08 29.814a29.305 29.305 0 003.911 14.653L.836 59.652l15.538-4.078a29.321 29.321 0 0014.006 3.568h.013c16.151 0 29.302-13.147 29.309-29.309a29.141 29.141 0 00-8.577-20.732zM30.393 54.196h-.01a24.31 24.31 0 01-12.4-3.399l-.888-.529-9.22 2.42 2.459-8.989-.578-.92A24.317 24.317 0 016.03 29.814c.007-13.432 10.934-24.36 24.373-24.36a24.202 24.202 0 0117.222 7.144 24.225 24.225 0 017.127 17.235c-.006 13.432-10.934 24.363-24.36 24.363zm13.363-18.247c-.734-.37-4.332-2.139-5.005-2.384-.67-.245-1.156-.365-1.645.366-.49.731-1.894 2.38-2.322 2.87-.428.49-.855.548-1.587.182-.73-.365-3.091-1.139-5.89-3.633-2.177-1.943-3.646-4.34-4.074-5.074-.428-.735-.046-1.13.323-1.495.33-.327.732-.856 1.097-1.283.366-.428.487-.732.732-1.221.244-.49.124-.918-.063-1.284-.182-.368-1.648-3.973-2.259-5.439-.59-1.42-1.195-1.23-1.645-1.25-.467-.02-.934-.028-1.4-.026a2.698 2.698 0 00-1.957.914c-.672.734-2.563 2.504-2.563 6.108 0 3.605 2.626 7.088 2.991 7.578.366.49 5.165 7.885 12.511 11.058a43.288 43.288 0 004.176 1.545c1.753.558 3.35.476 4.613.29 1.407-.209 4.333-1.77 4.943-3.48.61-1.711.61-3.177.428-3.484-.183-.307-.676-.493-1.404-.858z" fill="#FBFBFB"/></svg>