<svg width="80" height="79" fill="none" xmlns="http://www.w3.org/2000/svg"><circle cx="39.95" cy="39.78" r="38.035" fill="#44B111" stroke="#fff" stroke-width="2.353"/><path fill-rule="evenodd" clip-rule="evenodd" d="M49.994 29.794a13.988 13.988 0 00-9.96-4.13c-7.76 0-14.078 6.316-14.08 14.08 0 2.482.647 4.903 1.878 7.04l-1.997 7.294L33.3 52.12a14.088 14.088 0 006.728 1.715h.007c7.759 0 14.077-6.316 14.08-14.08a14.001 14.001 0 00-4.12-9.96zm-9.96 21.664h-.004c-2.096 0-4.154-.564-5.957-1.633l-.427-.254-4.429 1.162 1.181-4.318-.277-.442a11.681 11.681 0 01-1.79-6.229c.003-6.452 5.253-11.702 11.708-11.702a11.629 11.629 0 018.274 3.432 11.639 11.639 0 013.424 8.28c-.003 6.452-5.253 11.704-11.702 11.704zm6.42-8.767c-.353-.177-2.081-1.027-2.404-1.145-.322-.117-.555-.175-.79.176-.236.352-.91 1.144-1.116 1.379-.205.235-.41.263-.762.088-.351-.176-1.485-.548-2.83-1.746-1.046-.933-1.752-2.084-1.957-2.437-.205-.353-.022-.543.155-.719.159-.157.352-.41.527-.616.176-.206.234-.352.352-.587.117-.235.06-.44-.03-.616-.088-.177-.792-1.909-1.085-2.613-.284-.682-.575-.591-.791-.6-.224-.01-.448-.014-.673-.014a1.298 1.298 0 00-.94.44c-.322.353-1.23 1.203-1.23 2.934 0 1.732 1.26 3.405 1.436 3.64.176.236 2.481 3.788 6.01 5.313.841.362 1.497.579 2.006.742.843.268 1.61.229 2.217.14.676-.1 2.081-.85 2.374-1.672.294-.822.294-1.527.206-1.674-.088-.147-.325-.237-.675-.413z" fill="#FBFBFB"/></svg>