<svg width="179" height="180" fill="none" xmlns="http://www.w3.org/2000/svg"><g filter="url(#filter0_d)"><circle cx="89.71" cy="74.709" r="58.71" fill="#010D1B"/></g><path d="M108.478 54.416H71.513a2.52 2.52 0 00-2.52 2.52v4.201h42.005v-4.2a2.523 2.523 0 00-2.52-2.52zm-1.681 4.201h-6.721a.84.84 0 010-1.68h6.721a.839.839 0 110 1.68zM80 65h4v10h-4V65zm9 12h4v16h-4V77z" fill="#fff"/><path d="M68.992 62.817v30.244a2.52 2.52 0 002.52 2.52h36.966a2.522 2.522 0 002.52-2.52V62.817H68.992zm37.805 28.984a.838.838 0 01-.84.84H74.033a.84.84 0 01-.84-.84V78.36a.84.84 0 01.84-.84h31.924a.839.839 0 01.84.84v13.442zm0-17.642a.838.838 0 01-.84.84H74.033a.84.84 0 01-.84-.84v-7.561a.84.84 0 01.84-.84h31.924a.839.839 0 01.84.84v7.56z" fill="#fff"/><defs><filter id="filter0_d" x=".501" y=".75" width="178.416" height="178.416" filterUnits="userSpaceOnUse" color-interpolation-filters="sRGB"><feFlood flood-opacity="0" result="BackgroundImageFix"/><feColorMatrix in="SourceAlpha" values="0 0 0 0 0 0 0 0 0 0 0 0 0 0 0 0 0 0 127 0"/><feOffset dy="15.249"/><feGaussianBlur stdDeviation="15.249"/><feColorMatrix values="0 0 0 0 0 0 0 0 0 0 0 0 0 0 0 0 0 0 0.15 0"/><feBlend in2="BackgroundImageFix" result="effect1_dropShadow"/><feBlend in="SourceGraphic" in2="effect1_dropShadow" result="shape"/></filter></defs></svg>